<?xml version="1.0" standalone="no"?>
<!-- Generator: Adobe Fireworks 10, Export SVG Extension by Aaron Beall (http://fireworks.abeall.com) . Version: 0.6.1  -->
<!DOCTYPE svg PUBLIC "-//W3C//DTD SVG 1.1//EN" "http://www.w3.org/Graphics/SVG/1.1/DTD/svg11.dtd">
<svg id="Untitled-Page%201" viewBox="0 0 42 42" style="background-color:#ffffff00" version="1.1"
	xmlns="http://www.w3.org/2000/svg" xmlns:xlink="http://www.w3.org/1999/xlink" xml:space="preserve"
	x="0px" y="0px" width="42px" height="42px"
>
	<g id="Layer%201">
		<path d="M 6.3438 16.1406 L 12.5313 16.1406 L 12.5313 34.7344 L 6.3438 34.7344 L 6.3438 16.1406 L 6.3438 16.1406 ZM 11.9688 12.7031 C 11.3281 13.3281 10.4844 13.625 9.4219 13.625 L 9.4063 13.625 C 8.375 13.625 7.5469 13.3281 6.9219 12.7031 C 6.2813 12.0938 5.9688 11.3281 5.9688 10.4063 C 5.9688 9.4844 6.2813 8.7188 6.9375 8.1094 C 7.5938 7.5156 8.4375 7.2031 9.4688 7.2031 C 10.5 7.2031 11.3438 7.5156 11.9688 8.1094 C 12.5938 8.7188 12.9063 9.4844 12.9375 10.4063 C 12.9375 11.3281 12.6094 12.0938 11.9688 12.7031 L 11.9688 12.7031 ZM 28.6094 24.7969 C 28.6094 22 27.5625 20.5938 25.5 20.5938 C 24.7188 20.5938 24.0469 20.8125 23.5156 21.25 C 22.9844 21.6875 22.5781 22.2188 22.3125 22.8438 C 22.1875 23.1719 22.125 23.6719 22.125 24.3438 L 22.125 34.7344 L 15.9375 34.7344 C 15.9844 23.5156 15.9844 17.3281 15.9375 16.1406 L 22.125 16.1406 L 22.125 18.8438 L 22.0781 18.8438 C 23.375 16.7656 25.2344 15.7188 27.6719 15.7188 C 29.8125 15.7188 31.5313 16.4375 32.8438 17.8438 C 34.1406 19.25 34.7969 21.3281 34.7969 24.0781 L 34.7969 34.7344 L 28.6094 34.7344 L 28.6094 24.7969 L 28.6094 24.7969 ZM 38.875 2.5469 C 37.3594 1.0469 35.5469 0.2813 33.4219 0.2813 L 7.7188 0.2813 C 5.5938 0.2813 3.7656 1.0469 2.2656 2.5469 C 0.75 4.0625 0 5.875 0 8 L 0 33.7188 C 0 35.8438 0.75 37.6719 2.2656 39.1719 C 3.7656 40.6563 5.5938 41.4219 7.7188 41.4219 L 33.4219 41.4219 C 35.5469 41.4219 37.3594 40.6563 38.875 39.1719 C 40.375 37.6719 41.1406 35.8438 41.1406 33.7188 L 41.1406 8 C 41.1406 5.875 40.375 4.0625 38.875 2.5469 L 38.875 2.5469 Z" fill="#ffffff"/>
	</g>
</svg>